<svg xmlns="http://www.w3.org/2000/svg" width="15" height="11" fill="none" overflow="visible"><path d="M 12.696 0.922 C 11.725 0.495 10.692 0.18 9.603 0 C 9.468 0.225 9.311 0.532 9.208 0.78 C 8.056 0.615 6.912 0.615 5.783 0.78 C 5.673 0.532 5.515 0.225 5.381 0 C 4.292 0.18 3.258 0.495 2.287 0.922 C 0.33 3.727 -0.199 6.464 0.062 9.155 C 1.364 10.078 2.619 10.633 3.858 11 C 4.165 10.603 4.434 10.175 4.67 9.733 C 4.221 9.575 3.794 9.373 3.392 9.14 C 3.503 9.065 3.605 8.983 3.708 8.908 C 6.178 10.003 8.853 10.003 11.291 8.908 C 11.394 8.99 11.497 9.065 11.607 9.14 C 11.205 9.373 10.771 9.568 10.329 9.733 C 10.565 10.175 10.834 10.603 11.141 11 C 12.38 10.633 13.643 10.078 14.937 9.155 C 15.245 6.029 14.408 3.322 12.712 0.922 Z M 5.002 7.506 C 4.26 7.506 3.652 6.853 3.652 6.051 C 3.652 5.249 4.244 4.596 5.002 4.596 C 5.759 4.596 6.359 5.249 6.351 6.051 C 6.351 6.846 5.759 7.506 5.002 7.506 Z M 9.981 7.506 C 9.24 7.506 8.632 6.853 8.632 6.051 C 8.632 5.249 9.224 4.596 9.981 4.596 C 10.739 4.596 11.339 5.249 11.331 6.051 C 11.331 6.846 10.739 7.506 9.981 7.506 Z" fill="rgb(50, 0, 250)"></path></svg>