<svg xmlns="http://www.w3.org/2000/svg" width="14" height="14" fill="none" overflow="visible"><path d="M 7 0 C 3.134 0 0 3.134 0 7 C 0 10.866 3.134 14 7 14 C 10.866 14 14 10.866 14 7 C 14 3.134 10.866 0 7 0 Z M 7.7 10.5 C 7.7 10.887 7.387 11.2 7 11.2 C 6.613 11.2 6.3 10.887 6.3 10.5 C 6.3 10.113 6.613 9.8 7 9.8 C 7.387 9.8 7.7 10.113 7.7 10.5 Z M 5.6 5.254 C 5.6 5.641 5.287 5.954 4.9 5.954 C 4.513 5.954 4.2 5.641 4.2 5.254 C 4.2 4.43 4.581 3.79 5.138 3.374 C 5.676 2.975 6.356 2.797 7 2.797 C 7.644 2.797 8.323 2.975 8.862 3.374 C 9.419 3.788 9.8 4.43 9.8 5.253 C 9.8 5.853 9.611 6.31 9.286 6.661 C 9.03 6.938 8.701 7.127 8.474 7.256 L 8.403 7.298 C 8.141 7.452 7.988 7.557 7.885 7.693 C 7.795 7.808 7.7 8.001 7.7 8.399 C 7.7 8.785 7.387 9.099 7 9.099 C 6.613 9.099 6.3 8.785 6.3 8.399 C 6.3 7.748 6.468 7.241 6.773 6.842 C 7.062 6.464 7.434 6.243 7.697 6.089 L 7.736 6.066 C 8.012 5.907 8.154 5.824 8.257 5.711 C 8.327 5.636 8.4 5.526 8.4 5.253 C 8.412 4.954 8.271 4.669 8.026 4.497 C 7.777 4.312 7.406 4.199 7 4.199 C 6.594 4.199 6.224 4.313 5.974 4.5 C 5.729 4.672 5.589 4.957 5.6 5.256 Z" fill="rgb(255, 255, 255)"></path></svg>