<svg xmlns="http://www.w3.org/2000/svg" width="19" height="13" fill="none" overflow="visible"><path d="M 6.531 0 C 2.924 0 0 2.91 0 6.5 C 0 10.09 2.924 13 6.531 13 L 12.469 13 C 16.076 13 19 10.09 19 6.5 C 19 2.91 16.076 0 12.469 0 Z M 4.75 4.136 C 4.75 3.81 5.016 3.545 5.344 3.545 C 5.672 3.545 5.938 3.81 5.938 4.136 L 5.938 5.909 L 7.719 5.909 C 8.047 5.909 8.313 6.174 8.313 6.5 C 8.313 6.826 8.047 7.091 7.719 7.091 L 5.938 7.091 L 5.938 8.864 C 5.938 9.19 5.672 9.455 5.344 9.455 C 5.016 9.455 4.75 9.19 4.75 8.864 L 4.75 7.091 L 2.969 7.091 C 2.641 7.091 2.375 6.826 2.375 6.5 C 2.375 6.174 2.641 5.909 2.969 5.909 L 4.75 5.909 Z M 15.438 4.727 C 15.438 5.38 14.906 5.909 14.25 5.909 C 13.594 5.909 13.063 5.38 13.063 4.727 C 13.063 4.075 13.594 3.545 14.25 3.545 C 14.906 3.545 15.438 4.075 15.438 4.727 Z M 11.875 9.455 C 11.219 9.455 10.688 8.925 10.688 8.273 C 10.688 7.62 11.219 7.091 11.875 7.091 C 12.531 7.091 13.063 7.62 13.063 8.273 C 13.063 8.925 12.531 9.455 11.875 9.455 Z" fill="rgb(255, 255, 255)"></path></svg>