<svg xmlns="http://www.w3.org/2000/svg" width="14" height="15.013" fill="none" overflow="visible"><path d="M 7.802 0.315 C 7.352 -0.105 6.648 -0.105 6.199 0.315 L 0.547 5.598 C 0.197 5.925 0 6.38 0 6.857 L 0 13.283 C 0.001 14.239 0.784 15.013 1.75 15.013 L 3.5 15.013 C 4.466 15.013 5.25 14.238 5.25 13.282 L 5.25 10.398 C 5.25 10.079 5.511 9.821 5.833 9.821 L 8.167 9.821 C 8.489 9.821 8.75 10.079 8.75 10.398 L 8.75 13.282 C 8.75 14.238 9.534 15.013 10.5 15.013 L 12.25 15.013 C 13.216 15.013 14 14.238 14 13.282 L 14 6.855 C 14 6.379 13.802 5.925 13.452 5.598 L 7.802 0.313 Z" fill="rgb(255, 255, 255)"></path></svg>