<svg xmlns="http://www.w3.org/2000/svg" width="15" height="15" fill="none" overflow="visible"><path d="M 6.03 13.8 L 3.84 13.8 C 3.142 13.8 2.475 13.5 1.98 13.02 C 1.5 12.525 1.2 11.858 1.2 11.16 L 1.2 3.84 C 1.2 3.143 1.5 2.475 1.98 1.98 C 2.475 1.5 3.142 1.215 3.84 1.215 L 6.03 1.215 L 6.03 13.8 M 3.84 0 C 1.719 0 0 1.719 0 3.84 L 0 11.16 C 0 13.282 1.717 15 3.84 15 L 7.237 15 L 7.237 0 L 3.84 0 M 2.332 4.5 C 2.332 5.28 2.962 5.91 3.75 5.91 C 4.522 5.91 5.152 5.28 5.152 4.5 C 5.152 3.72 4.522 3.09 3.75 3.09 C 2.962 3.09 2.332 3.72 2.332 4.5 M 11.707 6.75 C 12.54 6.75 13.215 7.417 13.215 8.25 C 13.215 9.09 12.54 9.75 11.707 9.75 C 10.875 9.75 10.185 9.09 10.185 8.25 C 10.185 7.417 10.875 6.75 11.707 6.75 M 11.16 15 C 13.281 15 15 13.281 15 11.16 L 15 3.84 C 15 1.717 13.283 0 11.16 0 L 8.738 0 L 8.738 15 Z" fill="rgb(255, 0, 0)"></path></svg>