<svg xmlns="http://www.w3.org/2000/svg" width="16" height="16" fill="none" overflow="visible"><path d="M 11.199 8.8 L 4.803 8.8 C 4.899 10.922 5.37 12.763 6.028 14.072 C 6.816 15.64 7.605 16 7.999 16 C 8.393 16 9.184 15.64 9.972 14.072 C 10.63 12.763 11.101 10.92 11.197 8.8 Z M 4.803 7.2 C 4.899 5.078 5.37 3.237 6.028 1.928 C 6.816 0.36 7.605 0 7.999 0 C 8.393 0 9.184 0.36 9.972 1.928 C 10.63 3.237 11.101 5.08 11.197 7.2 Z M 3.193 7.2 L 0 7.2 C 0.297 4.269 2.188 1.737 4.923 0.608 C 3.952 2.208 3.303 4.552 3.193 7.2 Z M 3.193 8.8 L 0 8.8 C 0.297 11.731 2.188 14.263 4.923 15.392 C 3.952 13.792 3.303 11.448 3.193 8.8 Z M 12.808 8.8 L 16 8.8 C 15.703 11.731 13.813 14.263 11.078 15.392 C 12.048 13.792 12.697 11.448 12.807 8.8 Z M 16 7.2 L 12.807 7.2 C 12.697 4.552 12.048 2.208 11.078 0.608 C 13.813 1.737 15.703 4.269 16 7.2 Z" fill="rgb(255, 255, 255)"></path></svg>