<svg xmlns="http://www.w3.org/2000/svg" width="16" height="14" fill="none" overflow="visible"><path d="M 11.216 13.755 C 11.559 14.082 12.105 14.082 12.448 13.755 L 15.708 10.663 C 15.948 10.449 16.051 10.123 15.976 9.813 C 15.901 9.503 15.661 9.257 15.349 9.172 C 15.037 9.087 14.702 9.175 14.475 9.403 L 12.721 11.067 L 12.721 0.875 C 12.721 0.392 12.323 0 11.832 0 C 11.341 0 10.943 0.392 10.943 0.875 L 10.943 11.067 L 9.188 9.403 C 8.962 9.175 8.627 9.087 8.315 9.172 C 8.003 9.257 7.763 9.503 7.688 9.813 C 7.613 10.123 7.716 10.449 7.956 10.663 Z M 4.755 0.257 C 4.408 -0.085 3.846 -0.085 3.498 0.257 L 0.239 3.465 C -0.088 3.81 -0.078 4.347 0.26 4.68 C 0.599 5.013 1.145 5.023 1.495 4.702 L 3.238 2.987 L 3.238 13.125 C 3.238 13.608 3.636 14 4.127 14 C 4.618 14 5.016 13.608 5.016 13.125 L 5.016 2.987 L 6.758 4.702 C 7.109 5.023 7.655 5.013 7.993 4.68 C 8.332 4.347 8.341 3.81 8.015 3.465 Z" fill="rgb(255, 255, 255)"></path></svg>