<svg xmlns="http://www.w3.org/2000/svg" width="14" height="14" fill="none" overflow="visible"><path d="M 7 14 C 6.028 14 5.117 13.815 4.268 13.445 C 3.418 13.076 2.679 12.577 2.051 11.949 C 1.423 11.32 0.924 10.581 0.555 9.732 C 0.185 8.884 0.001 7.973 0 7 C 0 6.028 0.185 5.117 0.555 4.268 C 0.924 3.418 1.423 2.679 2.051 2.051 C 2.68 1.423 3.419 0.924 4.268 0.555 C 5.116 0.185 6.027 0.001 7 0 C 8.063 0 9.071 0.227 10.024 0.681 C 10.977 1.134 11.784 1.776 12.444 2.606 L 12.444 0.778 L 14 0.778 L 14 5.444 L 9.333 5.444 L 9.333 3.889 L 11.472 3.889 C 10.941 3.163 10.286 2.593 9.508 2.178 C 8.731 1.763 7.894 1.556 7 1.556 C 5.483 1.556 4.197 2.084 3.14 3.141 C 2.083 4.197 1.555 5.484 1.556 7 C 1.556 8.517 2.084 9.803 3.141 10.86 C 4.197 11.917 5.484 12.445 7 12.444 C 8.361 12.444 9.551 12.004 10.568 11.122 C 11.586 10.241 12.186 9.126 12.367 7.778 L 13.961 7.778 C 13.767 9.554 13.005 11.035 11.677 12.221 C 10.348 13.408 8.789 14.001 7 14 Z M 9.178 10.267 L 6.222 7.311 L 6.222 3.111 L 7.778 3.111 L 7.778 6.689 L 10.267 9.178 Z" fill="rgb(255, 255, 255)"></path></svg>